<mxfile host="app.diagrams.net" modified="2020-05-13T07:36:24.806Z" agent="5.0 (Windows NT 10.0; WOW64) AppleWebKit/537.36 (KHTML, like Gecko) Chrome/81.0.4044.122 Safari/537.36" etag="f7eg8RfRA3lwwvfyytVu" version="13.1.1" type="github">
  <diagram id="a6d8qoQg7wmettdPWS81" name="第 1 页">
    <mxGraphModel dx="1242" dy="717" grid="1" gridSize="10" guides="1" tooltips="1" connect="1" arrows="1" fold="1" page="1" pageScale="1" pageWidth="827" pageHeight="1169" math="0" shadow="0">
      <root>
        <mxCell id="0" />
        <mxCell id="1" parent="0" />
        <mxCell id="HE5zqGtq0i5ZuVJ_DL0v-15" value="Collector在线列表" style="swimlane;fontStyle=0;childLayout=stackLayout;horizontal=1;startSize=26;fillColor=none;horizontalStack=0;resizeParent=1;resizeParentMax=0;resizeLast=0;collapsible=1;marginBottom=0;" parent="1" vertex="1">
          <mxGeometry x="1260" y="528" width="160" height="104" as="geometry">
            <mxRectangle x="1260" y="250" width="130" height="26" as="alternateBounds" />
          </mxGeometry>
        </mxCell>
        <mxCell id="HE5zqGtq0i5ZuVJ_DL0v-16" value="collectorId" style="text;strokeColor=none;fillColor=none;align=left;verticalAlign=top;spacingLeft=4;spacingRight=4;overflow=hidden;rotatable=0;points=[[0,0.5],[1,0.5]];portConstraint=eastwest;" parent="HE5zqGtq0i5ZuVJ_DL0v-15" vertex="1">
          <mxGeometry y="26" width="160" height="26" as="geometry" />
        </mxCell>
        <mxCell id="HE5zqGtq0i5ZuVJ_DL0v-17" value="list agentId" style="text;strokeColor=none;fillColor=none;align=left;verticalAlign=top;spacingLeft=4;spacingRight=4;overflow=hidden;rotatable=0;points=[[0,0.5],[1,0.5]];portConstraint=eastwest;" parent="HE5zqGtq0i5ZuVJ_DL0v-15" vertex="1">
          <mxGeometry y="52" width="160" height="26" as="geometry" />
        </mxCell>
        <mxCell id="HE5zqGtq0i5ZuVJ_DL0v-18" value="timestamp&#xa;" style="text;strokeColor=none;fillColor=none;align=left;verticalAlign=top;spacingLeft=4;spacingRight=4;overflow=hidden;rotatable=0;points=[[0,0.5],[1,0.5]];portConstraint=eastwest;" parent="HE5zqGtq0i5ZuVJ_DL0v-15" vertex="1">
          <mxGeometry y="78" width="160" height="26" as="geometry" />
        </mxCell>
        <mxCell id="HE5zqGtq0i5ZuVJ_DL0v-5" value="" style="rounded=1;whiteSpace=wrap;html=1;" parent="1" vertex="1">
          <mxGeometry x="139" y="1109" width="1130" height="551" as="geometry" />
        </mxCell>
        <mxCell id="qAdTjsP8O6FM5Z1obVZ--37" value="" style="rounded=1;whiteSpace=wrap;html=1;fillColor=#17A2FF;" parent="1" vertex="1">
          <mxGeometry x="171" y="1750" width="1040" height="140" as="geometry" />
        </mxCell>
        <mxCell id="yvgwfU8hFtTpQq32b1yH-145" value="" style="strokeWidth=2;html=1;shape=mxgraph.flowchart.database;whiteSpace=wrap;fillColor=#FFFFFF;" parent="1" vertex="1">
          <mxGeometry x="232" y="670" width="1004" height="190" as="geometry" />
        </mxCell>
        <mxCell id="yvgwfU8hFtTpQq32b1yH-130" value="" style="rounded=1;whiteSpace=wrap;html=1;fillColor=#FFFFFF;strokeColor=#000000;" parent="1" vertex="1">
          <mxGeometry x="233" y="100" width="897" height="470" as="geometry" />
        </mxCell>
        <mxCell id="FVSSslxMcm7K-c5CqzQ3-8" style="edgeStyle=orthogonalEdgeStyle;rounded=0;orthogonalLoop=1;jettySize=auto;html=1;exitX=0.5;exitY=1;exitDx=0;exitDy=0;entryX=0.5;entryY=0;entryDx=0;entryDy=0;" parent="1" source="FVSSslxMcm7K-c5CqzQ3-2" target="FVSSslxMcm7K-c5CqzQ3-3" edge="1">
          <mxGeometry relative="1" as="geometry" />
        </mxCell>
        <mxCell id="jSEHMp3xiI0pvjKX2GBw-10" style="edgeStyle=orthogonalEdgeStyle;rounded=0;orthogonalLoop=1;jettySize=auto;html=1;exitX=1;exitY=0.5;exitDx=0;exitDy=0;entryX=0;entryY=0.5;entryDx=0;entryDy=0;strokeColor=#FF3D0D;" parent="1" source="FVSSslxMcm7K-c5CqzQ3-2" target="qAdTjsP8O6FM5Z1obVZ--5" edge="1">
          <mxGeometry relative="1" as="geometry" />
        </mxCell>
        <mxCell id="yvgwfU8hFtTpQq32b1yH-206" style="edgeStyle=orthogonalEdgeStyle;rounded=0;orthogonalLoop=1;jettySize=auto;html=1;exitX=0.5;exitY=1;exitDx=0;exitDy=0;entryX=0.5;entryY=0;entryDx=0;entryDy=0;" parent="1" source="FVSSslxMcm7K-c5CqzQ3-2" target="FVSSslxMcm7K-c5CqzQ3-5" edge="1">
          <mxGeometry relative="1" as="geometry" />
        </mxCell>
        <mxCell id="FVSSslxMcm7K-c5CqzQ3-2" value="plan&lt;br&gt;(schedule, requirementcode)" style="rounded=1;whiteSpace=wrap;html=1;" parent="1" vertex="1">
          <mxGeometry x="566" y="150" width="174" height="60" as="geometry" />
        </mxCell>
        <mxCell id="yvgwfU8hFtTpQq32b1yH-204" style="edgeStyle=orthogonalEdgeStyle;rounded=0;orthogonalLoop=1;jettySize=auto;html=1;exitX=0.5;exitY=1;exitDx=0;exitDy=0;entryX=0.5;entryY=0;entryDx=0;entryDy=0;" parent="1" source="FVSSslxMcm7K-c5CqzQ3-3" target="FVSSslxMcm7K-c5CqzQ3-16" edge="1">
          <mxGeometry relative="1" as="geometry" />
        </mxCell>
        <mxCell id="FVSSslxMcm7K-c5CqzQ3-3" value="&lt;br&gt;task1&lt;br&gt;(scope)" style="rounded=1;whiteSpace=wrap;html=1;" parent="1" vertex="1">
          <mxGeometry x="475" y="310" width="120" height="60" as="geometry" />
        </mxCell>
        <mxCell id="yvgwfU8hFtTpQq32b1yH-207" style="edgeStyle=orthogonalEdgeStyle;rounded=0;orthogonalLoop=1;jettySize=auto;html=1;exitX=0.5;exitY=1;exitDx=0;exitDy=0;entryX=0.5;entryY=0;entryDx=0;entryDy=0;" parent="1" source="FVSSslxMcm7K-c5CqzQ3-5" target="FVSSslxMcm7K-c5CqzQ3-16" edge="1">
          <mxGeometry relative="1" as="geometry" />
        </mxCell>
        <mxCell id="yvgwfU8hFtTpQq32b1yH-208" value="聚合范围" style="edgeLabel;html=1;align=center;verticalAlign=middle;resizable=0;points=[];" parent="yvgwfU8hFtTpQq32b1yH-207" vertex="1" connectable="0">
          <mxGeometry x="0.6296" y="-6" relative="1" as="geometry">
            <mxPoint x="43" y="-6" as="offset" />
          </mxGeometry>
        </mxCell>
        <mxCell id="FVSSslxMcm7K-c5CqzQ3-5" value="&lt;br&gt;task2&lt;br&gt;(scope)" style="rounded=1;whiteSpace=wrap;html=1;" parent="1" vertex="1">
          <mxGeometry x="695" y="310" width="120" height="60" as="geometry" />
        </mxCell>
        <mxCell id="yvgwfU8hFtTpQq32b1yH-150" value="发布一条消息到topic中" style="edgeStyle=orthogonalEdgeStyle;rounded=0;orthogonalLoop=1;jettySize=auto;html=1;exitX=0.25;exitY=1;exitDx=0;exitDy=0;entryX=0.5;entryY=0;entryDx=0;entryDy=0;entryPerimeter=0;strokeColor=#9999FF;" parent="1" source="FVSSslxMcm7K-c5CqzQ3-16" target="yvgwfU8hFtTpQq32b1yH-152" edge="1">
          <mxGeometry x="-0.1275" relative="1" as="geometry">
            <Array as="points">
              <mxPoint x="475" y="560" />
            </Array>
            <mxPoint as="offset" />
          </mxGeometry>
        </mxCell>
        <mxCell id="HE5zqGtq0i5ZuVJ_DL0v-50" value="将任务放到队列" style="edgeStyle=elbowEdgeStyle;rounded=0;orthogonalLoop=1;jettySize=auto;elbow=vertical;html=1;exitX=0.5;exitY=1;exitDx=0;exitDy=0;entryX=0.08;entryY=0;entryDx=0;entryDy=0;entryPerimeter=0;fillColor=#A1FF14;strokeColor=#9999FF;" parent="1" edge="1">
          <mxGeometry x="0.0049" y="21" relative="1" as="geometry">
            <mxPoint x="600" y="559" as="sourcePoint" />
            <mxPoint x="600" y="762" as="targetPoint" />
            <mxPoint x="-21" y="-21" as="offset" />
          </mxGeometry>
        </mxCell>
        <mxCell id="FVSSslxMcm7K-c5CqzQ3-16" value="&lt;br&gt;&lt;br&gt;&lt;span style=&quot;color: rgb(0 , 0 , 0) ; font-family: &amp;#34;helvetica&amp;#34; ; font-size: 12px ; font-style: normal ; font-weight: 400 ; letter-spacing: normal ; text-align: center ; text-indent: 0px ; text-transform: none ; word-spacing: 0px ; background-color: rgb(248 , 249 , 250) ; float: none ; display: inline&quot;&gt;回放范围（center:[buis-ord,busi-exe...]&lt;/span&gt;&lt;br&gt;requrirementcode:[req_1, req_2]&lt;br&gt;计划ID 执行批次&amp;nbsp; 任务ID" style="rounded=1;whiteSpace=wrap;html=1;fillColor=#D4FFC7;" parent="1" vertex="1">
          <mxGeometry x="385" y="430" width="430" height="130" as="geometry" />
        </mxCell>
        <mxCell id="qAdTjsP8O6FM5Z1obVZ--29" value="C/U/D" style="edgeStyle=orthogonalEdgeStyle;rounded=0;orthogonalLoop=1;jettySize=auto;html=1;exitX=1;exitY=0.5;exitDx=0;exitDy=0;strokeColor=#FF3D0D;" parent="1" source="qAdTjsP8O6FM5Z1obVZ--1" target="FVSSslxMcm7K-c5CqzQ3-2" edge="1">
          <mxGeometry relative="1" as="geometry" />
        </mxCell>
        <mxCell id="yvgwfU8hFtTpQq32b1yH-189" value="create" style="edgeStyle=orthogonalEdgeStyle;rounded=0;orthogonalLoop=1;jettySize=auto;html=1;exitX=0.5;exitY=1;exitDx=0;exitDy=0;entryX=0.5;entryY=0;entryDx=0;entryDy=0;strokeColor=#E6D0DE;" parent="1" source="qAdTjsP8O6FM5Z1obVZ--1" target="yvgwfU8hFtTpQq32b1yH-188" edge="1">
          <mxGeometry relative="1" as="geometry" />
        </mxCell>
        <mxCell id="qAdTjsP8O6FM5Z1obVZ--1" value="Hook" style="shape=process;whiteSpace=wrap;html=1;backgroundOutline=1;" parent="1" vertex="1">
          <mxGeometry x="251" y="150" width="120" height="60" as="geometry" />
        </mxCell>
        <mxCell id="yvgwfU8hFtTpQq32b1yH-195" style="edgeStyle=orthogonalEdgeStyle;rounded=0;orthogonalLoop=1;jettySize=auto;html=1;exitX=0.5;exitY=1;exitDx=0;exitDy=0;entryX=0.5;entryY=0;entryDx=0;entryDy=0;" parent="1" source="qAdTjsP8O6FM5Z1obVZ--5" target="qAdTjsP8O6FM5Z1obVZ--7" edge="1">
          <mxGeometry relative="1" as="geometry" />
        </mxCell>
        <mxCell id="yvgwfU8hFtTpQq32b1yH-196" style="edgeStyle=orthogonalEdgeStyle;rounded=0;orthogonalLoop=1;jettySize=auto;html=1;exitX=0.5;exitY=1;exitDx=0;exitDy=0;entryX=0.5;entryY=0;entryDx=0;entryDy=0;strokeColor=#FF3D0D;" parent="1" source="qAdTjsP8O6FM5Z1obVZ--5" target="yvgwfU8hFtTpQq32b1yH-132" edge="1">
          <mxGeometry relative="1" as="geometry" />
        </mxCell>
        <mxCell id="HE5zqGtq0i5ZuVJ_DL0v-4" style="edgeStyle=orthogonalEdgeStyle;rounded=0;orthogonalLoop=1;jettySize=auto;html=1;exitX=1;exitY=0.5;exitDx=0;exitDy=0;" parent="1" source="qAdTjsP8O6FM5Z1obVZ--5" target="qAdTjsP8O6FM5Z1obVZ--9" edge="1">
          <mxGeometry relative="1" as="geometry" />
        </mxCell>
        <mxCell id="qAdTjsP8O6FM5Z1obVZ--5" value="Quatz" style="rounded=1;whiteSpace=wrap;html=1;fillColor=#AAFF3B;" parent="1" vertex="1">
          <mxGeometry x="911" y="150" width="120" height="60" as="geometry" />
        </mxCell>
        <mxCell id="yvgwfU8hFtTpQq32b1yH-255" value="心跳检查" style="edgeStyle=elbowEdgeStyle;rounded=0;orthogonalLoop=1;jettySize=auto;html=1;exitX=0.5;exitY=1;exitDx=0;exitDy=0;" parent="1" edge="1">
          <mxGeometry y="-49" relative="1" as="geometry">
            <mxPoint x="1012" y="370" as="sourcePoint" />
            <mxPoint x="1012" y="769" as="targetPoint" />
            <mxPoint x="49" y="-50" as="offset" />
          </mxGeometry>
        </mxCell>
        <mxCell id="HE5zqGtq0i5ZuVJ_DL0v-67" style="edgeStyle=orthogonalEdgeStyle;rounded=0;orthogonalLoop=1;jettySize=auto;html=1;exitX=0.5;exitY=1;exitDx=0;exitDy=0;entryX=0.276;entryY=0.065;entryDx=0;entryDy=0;entryPerimeter=0;strokeColor=#A1FF14;fillColor=#FFFF99;" parent="1" source="qAdTjsP8O6FM5Z1obVZ--7" target="yvgwfU8hFtTpQq32b1yH-167" edge="1">
          <mxGeometry relative="1" as="geometry">
            <Array as="points">
              <mxPoint x="1058" y="620" />
              <mxPoint x="1130" y="620" />
            </Array>
          </mxGeometry>
        </mxCell>
        <mxCell id="HE5zqGtq0i5ZuVJ_DL0v-108" style="edgeStyle=orthogonalEdgeStyle;rounded=0;orthogonalLoop=1;jettySize=auto;html=1;exitX=0.5;exitY=1;exitDx=0;exitDy=0;entryX=0.08;entryY=0;entryDx=0;entryDy=0;entryPerimeter=0;strokeColor=#A1FF14;fillColor=#FFFF99;" parent="1" source="qAdTjsP8O6FM5Z1obVZ--7" target="yvgwfU8hFtTpQq32b1yH-164" edge="1">
          <mxGeometry relative="1" as="geometry">
            <Array as="points">
              <mxPoint x="1058" y="620" />
              <mxPoint x="794" y="620" />
            </Array>
          </mxGeometry>
        </mxCell>
        <mxCell id="qAdTjsP8O6FM5Z1obVZ--7" value="守护线程(系统初始化)" style="rounded=1;whiteSpace=wrap;html=1;fillColor=#DACFFF;" parent="1" vertex="1">
          <mxGeometry x="998" y="310" width="120" height="60" as="geometry" />
        </mxCell>
        <mxCell id="qAdTjsP8O6FM5Z1obVZ--9" value="DB" style="shape=cylinder;whiteSpace=wrap;html=1;boundedLbl=1;backgroundOutline=1;fillColor=#05C5FF;" parent="1" vertex="1">
          <mxGeometry x="1375" y="940" width="146" height="180" as="geometry" />
        </mxCell>
        <mxCell id="yvgwfU8hFtTpQq32b1yH-243" value="执行日志" style="edgeStyle=orthogonalEdgeStyle;rounded=0;orthogonalLoop=1;jettySize=auto;html=1;exitX=1;exitY=0.5;exitDx=0;exitDy=0;entryX=0.85;entryY=0.95;entryDx=0;entryDy=0;entryPerimeter=0;strokeColor=#9AC7BF;" parent="1" source="qAdTjsP8O6FM5Z1obVZ--21" target="qAdTjsP8O6FM5Z1obVZ--9" edge="1">
          <mxGeometry relative="1" as="geometry" />
        </mxCell>
        <mxCell id="yvgwfU8hFtTpQq32b1yH-307" style="edgeStyle=orthogonalEdgeStyle;rounded=0;orthogonalLoop=1;jettySize=auto;html=1;exitX=1;exitY=0.25;exitDx=0;exitDy=0;entryX=0.5;entryY=1;entryDx=0;entryDy=0;strokeColor=#EA6B66;" parent="1" source="qAdTjsP8O6FM5Z1obVZ--21" target="qAdTjsP8O6FM5Z1obVZ--9" edge="1">
          <mxGeometry relative="1" as="geometry" />
        </mxCell>
        <mxCell id="yvgwfU8hFtTpQq32b1yH-308" value="fetch cases" style="edgeLabel;html=1;align=center;verticalAlign=middle;resizable=0;points=[];" parent="yvgwfU8hFtTpQq32b1yH-307" vertex="1" connectable="0">
          <mxGeometry x="-0.5521" y="3" relative="1" as="geometry">
            <mxPoint as="offset" />
          </mxGeometry>
        </mxCell>
        <mxCell id="yvgwfU8hFtTpQq32b1yH-319" value="下发数据" style="edgeStyle=orthogonalEdgeStyle;rounded=0;orthogonalLoop=1;jettySize=auto;html=1;exitX=0.25;exitY=1;exitDx=0;exitDy=0;entryX=0.25;entryY=0;entryDx=0;entryDy=0;strokeColor=#EA6B66;" parent="1" source="qAdTjsP8O6FM5Z1obVZ--21" target="yvgwfU8hFtTpQq32b1yH-310" edge="1">
          <mxGeometry relative="1" as="geometry" />
        </mxCell>
        <mxCell id="HE5zqGtq0i5ZuVJ_DL0v-87" style="edgeStyle=orthogonalEdgeStyle;rounded=0;orthogonalLoop=1;jettySize=auto;html=1;exitX=1;exitY=0;exitDx=0;exitDy=0;entryX=0.91;entryY=1;entryDx=0;entryDy=0;entryPerimeter=0;strokeColor=#9AC7BF;fillColor=#FFFF99;" parent="1" source="qAdTjsP8O6FM5Z1obVZ--21" target="yvgwfU8hFtTpQq32b1yH-167" edge="1">
          <mxGeometry relative="1" as="geometry">
            <Array as="points">
              <mxPoint x="1209" y="1490" />
            </Array>
          </mxGeometry>
        </mxCell>
        <mxCell id="HE5zqGtq0i5ZuVJ_DL0v-117" value="&lt;span style=&quot;font-size: 12px ; background-color: rgb(248 , 249 , 250)&quot;&gt;更&lt;/span&gt;&lt;br style=&quot;font-size: 12px ; background-color: rgb(248 , 249 , 250)&quot;&gt;&lt;span style=&quot;font-size: 12px ; background-color: rgb(248 , 249 , 250)&quot;&gt;新&lt;/span&gt;&lt;br style=&quot;font-size: 12px ; background-color: rgb(248 , 249 , 250)&quot;&gt;&lt;span style=&quot;font-size: 12px ; background-color: rgb(248 , 249 , 250)&quot;&gt;任&lt;/span&gt;&lt;br style=&quot;font-size: 12px ; background-color: rgb(248 , 249 , 250)&quot;&gt;&lt;span style=&quot;font-size: 12px ; background-color: rgb(248 , 249 , 250)&quot;&gt;务&lt;/span&gt;&lt;br style=&quot;font-size: 12px ; background-color: rgb(248 , 249 , 250)&quot;&gt;&lt;span style=&quot;font-size: 12px ; background-color: rgb(248 , 249 , 250)&quot;&gt;执&lt;/span&gt;&lt;br style=&quot;font-size: 12px ; background-color: rgb(248 , 249 , 250)&quot;&gt;&lt;span style=&quot;font-size: 12px ; background-color: rgb(248 , 249 , 250)&quot;&gt;行&lt;/span&gt;&lt;br style=&quot;font-size: 12px ; background-color: rgb(248 , 249 , 250)&quot;&gt;&lt;span style=&quot;font-size: 12px ; background-color: rgb(248 , 249 , 250)&quot;&gt;状&lt;/span&gt;&lt;br style=&quot;font-size: 12px ; background-color: rgb(248 , 249 , 250)&quot;&gt;&lt;span style=&quot;font-size: 12px ; background-color: rgb(248 , 249 , 250)&quot;&gt;态&lt;/span&gt;&lt;br style=&quot;font-size: 12px ; background-color: rgb(248 , 249 , 250)&quot;&gt;&lt;span style=&quot;font-size: 12px ; background-color: rgb(248 , 249 , 250)&quot;&gt;和&lt;/span&gt;&lt;br style=&quot;font-size: 12px ; background-color: rgb(248 , 249 , 250)&quot;&gt;&lt;span style=&quot;font-size: 12px ; background-color: rgb(248 , 249 , 250)&quot;&gt;时&lt;/span&gt;&lt;br style=&quot;font-size: 12px ; background-color: rgb(248 , 249 , 250)&quot;&gt;&lt;span style=&quot;font-size: 12px ; background-color: rgb(248 , 249 , 250)&quot;&gt;间&lt;/span&gt;&lt;br style=&quot;font-size: 12px ; background-color: rgb(248 , 249 , 250)&quot;&gt;&lt;span style=&quot;font-size: 12px ; background-color: rgb(248 , 249 , 250)&quot;&gt;戳&lt;/span&gt;" style="edgeLabel;html=1;align=center;verticalAlign=middle;resizable=0;points=[];" parent="HE5zqGtq0i5ZuVJ_DL0v-87" vertex="1" connectable="0">
          <mxGeometry x="0.7049" y="-4" relative="1" as="geometry">
            <mxPoint y="39" as="offset" />
          </mxGeometry>
        </mxCell>
        <mxCell id="qAdTjsP8O6FM5Z1obVZ--21" value="&lt;font style=&quot;font-size: 18px&quot;&gt;&lt;b&gt;执行模块2&lt;/b&gt;&lt;/font&gt;" style="rounded=1;whiteSpace=wrap;html=1;fillColor=#E6D0DE;" parent="1" vertex="1">
          <mxGeometry x="882.5" y="1490" width="270" height="120" as="geometry" />
        </mxCell>
        <mxCell id="yvgwfU8hFtTpQq32b1yH-103" value="" style="group;fillColor=#E5CCFF;" parent="1" vertex="1" connectable="0">
          <mxGeometry x="190" y="1492.5" width="350" height="122.5" as="geometry" />
        </mxCell>
        <mxCell id="qAdTjsP8O6FM5Z1obVZ--30" value="" style="rounded=1;whiteSpace=wrap;html=1;fillColor=#FFCCFF;" parent="yvgwfU8hFtTpQq32b1yH-103" vertex="1">
          <mxGeometry width="349.99999999999994" height="122.5" as="geometry" />
        </mxCell>
        <mxCell id="yvgwfU8hFtTpQq32b1yH-29" value="&lt;font style=&quot;font-size: 18px&quot;&gt;&lt;b&gt;资源模块&lt;/b&gt;&lt;/font&gt;" style="text;html=1;strokeColor=none;fillColor=none;align=center;verticalAlign=middle;whiteSpace=wrap;rounded=0;" parent="yvgwfU8hFtTpQq32b1yH-103" vertex="1">
          <mxGeometry x="73.33333333333333" y="7.501228070175438" width="163.33333333333331" height="14.32748538011696" as="geometry" />
        </mxCell>
        <mxCell id="yvgwfU8hFtTpQq32b1yH-30" value="资源管理" style="rounded=1;whiteSpace=wrap;html=1;fillColor=#FFFFFF;" parent="yvgwfU8hFtTpQq32b1yH-103" vertex="1">
          <mxGeometry x="22.33" y="50.15" width="76.67" height="42.98" as="geometry" />
        </mxCell>
        <mxCell id="yvgwfU8hFtTpQq32b1yH-31" value="扩缩容模块" style="rounded=1;whiteSpace=wrap;html=1;fillColor=#FFFFFF;" parent="yvgwfU8hFtTpQq32b1yH-103" vertex="1">
          <mxGeometry x="147" y="50.15" width="76.67" height="42.98" as="geometry" />
        </mxCell>
        <mxCell id="Zsitfa40AyVPrcMKO36s-14" value="资源池&lt;br&gt;agentid--&amp;gt; 连接" style="rounded=1;whiteSpace=wrap;html=1;fillColor=#FFFFFF;" vertex="1" parent="yvgwfU8hFtTpQq32b1yH-103">
          <mxGeometry x="236" y="50.15" width="93.33" height="42.98" as="geometry" />
        </mxCell>
        <mxCell id="yvgwfU8hFtTpQq32b1yH-131" value="&lt;font style=&quot;font-size: 18px&quot;&gt;&lt;b&gt;API&amp;nbsp; 任务模块&lt;/b&gt;&lt;/font&gt;" style="text;html=1;strokeColor=none;fillColor=#FFFFFF;align=center;verticalAlign=middle;whiteSpace=wrap;rounded=0;" parent="1" vertex="1">
          <mxGeometry x="290" y="120" width="119" height="20" as="geometry" />
        </mxCell>
        <mxCell id="yvgwfU8hFtTpQq32b1yH-254" style="edgeStyle=orthogonalEdgeStyle;rounded=0;orthogonalLoop=1;jettySize=auto;html=1;exitX=0.5;exitY=1;exitDx=0;exitDy=0;entryX=1;entryY=0.5;entryDx=0;entryDy=0;strokeColor=#FF3D0D;" parent="1" source="yvgwfU8hFtTpQq32b1yH-132" target="FVSSslxMcm7K-c5CqzQ3-16" edge="1">
          <mxGeometry relative="1" as="geometry" />
        </mxCell>
        <mxCell id="yvgwfU8hFtTpQq32b1yH-132" value="定时任务" style="rounded=1;whiteSpace=wrap;html=1;fillColor=#FFCCFF;" parent="1" vertex="1">
          <mxGeometry x="835" y="310" width="120" height="60" as="geometry" />
        </mxCell>
        <mxCell id="yvgwfU8hFtTpQq32b1yH-152" value="topic" style="strokeWidth=2;html=1;shape=mxgraph.flowchart.direct_data;whiteSpace=wrap;fillColor=#FFFFFF;" parent="1" vertex="1">
          <mxGeometry x="425" y="766" width="100" height="60" as="geometry" />
        </mxCell>
        <mxCell id="yvgwfU8hFtTpQq32b1yH-153" value="queue(list)" style="strokeWidth=2;html=1;shape=mxgraph.flowchart.direct_data;whiteSpace=wrap;fillColor=#FFFFFF;" parent="1" vertex="1">
          <mxGeometry x="592" y="763" width="100" height="60" as="geometry" />
        </mxCell>
        <mxCell id="yvgwfU8hFtTpQq32b1yH-158" value="" style="group;fillColor=#CCFFFF;" parent="1" vertex="1" connectable="0">
          <mxGeometry x="600.5" y="1140" width="490" height="160" as="geometry" />
        </mxCell>
        <mxCell id="yvgwfU8hFtTpQq32b1yH-159" value="" style="rounded=1;whiteSpace=wrap;html=1;fillColor=#CCE5FF;" parent="yvgwfU8hFtTpQq32b1yH-158" vertex="1">
          <mxGeometry x="-20" width="510" height="160" as="geometry" />
        </mxCell>
        <mxCell id="HE5zqGtq0i5ZuVJ_DL0v-125" style="edgeStyle=orthogonalEdgeStyle;rounded=0;orthogonalLoop=1;jettySize=auto;html=1;exitX=1;exitY=0.5;exitDx=0;exitDy=0;entryX=0;entryY=0.5;entryDx=0;entryDy=0;strokeColor=#67AB9F;fillColor=#FFFF99;" parent="yvgwfU8hFtTpQq32b1yH-158" source="HE5zqGtq0i5ZuVJ_DL0v-73" target="HE5zqGtq0i5ZuVJ_DL0v-76" edge="1">
          <mxGeometry relative="1" as="geometry" />
        </mxCell>
        <mxCell id="HE5zqGtq0i5ZuVJ_DL0v-126" value="返回资源" style="edgeLabel;html=1;align=center;verticalAlign=middle;resizable=0;points=[];" parent="HE5zqGtq0i5ZuVJ_DL0v-125" vertex="1" connectable="0">
          <mxGeometry x="-0.2727" relative="1" as="geometry">
            <mxPoint y="1" as="offset" />
          </mxGeometry>
        </mxCell>
        <mxCell id="HE5zqGtq0i5ZuVJ_DL0v-73" value="资源管理" style="rounded=1;whiteSpace=wrap;html=1;strokeColor=#000000;fillColor=#CCE5FF;" parent="yvgwfU8hFtTpQq32b1yH-158" vertex="1">
          <mxGeometry x="29.5" y="69" width="80.5" height="45" as="geometry" />
        </mxCell>
        <mxCell id="HE5zqGtq0i5ZuVJ_DL0v-75" value="注册管理" style="rounded=1;whiteSpace=wrap;html=1;strokeColor=#000000;fillColor=#CCE5FF;" parent="yvgwfU8hFtTpQq32b1yH-158" vertex="1">
          <mxGeometry x="346.25" y="69" width="109.5" height="45" as="geometry" />
        </mxCell>
        <mxCell id="HE5zqGtq0i5ZuVJ_DL0v-119" style="edgeStyle=orthogonalEdgeStyle;rounded=0;orthogonalLoop=1;jettySize=auto;html=1;exitX=0.25;exitY=1;exitDx=0;exitDy=0;entryX=0.5;entryY=1;entryDx=0;entryDy=0;strokeColor=#67AB9F;fillColor=#FFFF99;" parent="yvgwfU8hFtTpQq32b1yH-158" source="HE5zqGtq0i5ZuVJ_DL0v-76" target="HE5zqGtq0i5ZuVJ_DL0v-73" edge="1">
          <mxGeometry relative="1" as="geometry">
            <Array as="points">
              <mxPoint x="212" y="130" />
              <mxPoint x="70" y="130" />
            </Array>
          </mxGeometry>
        </mxCell>
        <mxCell id="HE5zqGtq0i5ZuVJ_DL0v-120" value="获取资源" style="edgeLabel;html=1;align=center;verticalAlign=middle;resizable=0;points=[];" parent="HE5zqGtq0i5ZuVJ_DL0v-119" vertex="1" connectable="0">
          <mxGeometry x="0.146" y="1" relative="1" as="geometry">
            <mxPoint x="11" as="offset" />
          </mxGeometry>
        </mxCell>
        <mxCell id="HE5zqGtq0i5ZuVJ_DL0v-76" value="任务管理" style="rounded=1;whiteSpace=wrap;html=1;strokeColor=#000000;fillColor=#CCE5FF;" parent="yvgwfU8hFtTpQq32b1yH-158" vertex="1">
          <mxGeometry x="189.75" y="69" width="90.5" height="45" as="geometry" />
        </mxCell>
        <mxCell id="HE5zqGtq0i5ZuVJ_DL0v-86" value="&lt;font style=&quot;font-size: 18px&quot;&gt;&lt;b&gt;调度模块1&lt;/b&gt;&lt;/font&gt;" style="text;html=1;strokeColor=none;fillColor=none;align=center;verticalAlign=middle;whiteSpace=wrap;rounded=0;" parent="yvgwfU8hFtTpQq32b1yH-158" vertex="1">
          <mxGeometry x="269.5" y="9" width="90" height="20" as="geometry" />
        </mxCell>
        <mxCell id="HE5zqGtq0i5ZuVJ_DL0v-74" value="订阅管理" style="rounded=1;whiteSpace=wrap;html=1;strokeColor=#000000;fillColor=#CCE5FF;" parent="yvgwfU8hFtTpQq32b1yH-158" vertex="1">
          <mxGeometry x="29.5" y="9" width="80.5" height="45" as="geometry" />
        </mxCell>
        <mxCell id="HE5zqGtq0i5ZuVJ_DL0v-2" style="edgeStyle=orthogonalEdgeStyle;rounded=0;orthogonalLoop=1;jettySize=auto;html=1;exitX=0;exitY=0.5;exitDx=0;exitDy=0;exitPerimeter=0;entryX=1;entryY=0.5;entryDx=0;entryDy=0;entryPerimeter=0;strokeColor=#FF3399;" parent="1" source="yvgwfU8hFtTpQq32b1yH-164" target="yvgwfU8hFtTpQq32b1yH-153" edge="1">
          <mxGeometry relative="1" as="geometry" />
        </mxCell>
        <mxCell id="yvgwfU8hFtTpQq32b1yH-164" value="&lt;span style=&quot;color: rgb(26 , 26 , 26) ; font-family: , &amp;#34;blinkmacsystemfont&amp;#34; , &amp;#34;helvetica neue&amp;#34; , &amp;#34;pingfang sc&amp;#34; , &amp;#34;microsoft yahei&amp;#34; , &amp;#34;source han sans sc&amp;#34; , &amp;#34;noto sans cjk sc&amp;#34; , &amp;#34;wenquanyi micro hei&amp;#34; , sans-serif ; font-size: 15px ; background-color: rgb(255 , 255 , 255)&quot;&gt;备份列表&lt;/span&gt;" style="strokeWidth=2;html=1;shape=mxgraph.flowchart.direct_data;whiteSpace=wrap;fillColor=#FFFFFF;" parent="1" vertex="1">
          <mxGeometry x="785.5" y="763" width="100" height="60" as="geometry" />
        </mxCell>
        <mxCell id="Zsitfa40AyVPrcMKO36s-11" style="edgeStyle=orthogonalEdgeStyle;rounded=0;orthogonalLoop=1;jettySize=auto;html=1;exitX=0.5;exitY=1;exitDx=0;exitDy=0;exitPerimeter=0;entryX=1;entryY=0;entryDx=0;entryDy=0;strokeColor=#67AB9F;" edge="1" parent="1" source="yvgwfU8hFtTpQq32b1yH-167" target="qAdTjsP8O6FM5Z1obVZ--21">
          <mxGeometry relative="1" as="geometry">
            <Array as="points">
              <mxPoint x="1158" y="1490" />
            </Array>
          </mxGeometry>
        </mxCell>
        <mxCell id="Zsitfa40AyVPrcMKO36s-12" value="获&lt;br&gt;取&lt;br&gt;子&lt;br&gt;任&lt;br&gt;务" style="edgeLabel;html=1;align=center;verticalAlign=middle;resizable=0;points=[];" vertex="1" connectable="0" parent="Zsitfa40AyVPrcMKO36s-11">
          <mxGeometry x="-0.3423" relative="1" as="geometry">
            <mxPoint y="-122" as="offset" />
          </mxGeometry>
        </mxCell>
        <mxCell id="yvgwfU8hFtTpQq32b1yH-167" value="任务执行列表" style="strokeWidth=2;html=1;shape=mxgraph.flowchart.direct_data;whiteSpace=wrap;fillColor=#FFFFFF;" parent="1" vertex="1">
          <mxGeometry x="1095" y="772" width="125" height="54" as="geometry" />
        </mxCell>
        <mxCell id="yvgwfU8hFtTpQq32b1yH-178" value="&lt;font style=&quot;font-size: 24px&quot;&gt;&lt;b&gt;Redis&lt;/b&gt;&lt;/font&gt;" style="text;html=1;strokeColor=none;fillColor=none;align=center;verticalAlign=middle;whiteSpace=wrap;rounded=0;" parent="1" vertex="1">
          <mxGeometry x="735" y="690" width="40" height="20" as="geometry" />
        </mxCell>
        <mxCell id="yvgwfU8hFtTpQq32b1yH-209" value="create" style="edgeStyle=orthogonalEdgeStyle;rounded=0;orthogonalLoop=1;jettySize=auto;html=1;exitX=0.5;exitY=1;exitDx=0;exitDy=0;entryX=0;entryY=0.5;entryDx=0;entryDy=0;strokeColor=#E6D0DE;" parent="1" source="yvgwfU8hFtTpQq32b1yH-188" target="FVSSslxMcm7K-c5CqzQ3-16" edge="1">
          <mxGeometry relative="1" as="geometry" />
        </mxCell>
        <mxCell id="yvgwfU8hFtTpQq32b1yH-188" value="&lt;br&gt;task&lt;br&gt;(scope)" style="rounded=1;whiteSpace=wrap;html=1;" parent="1" vertex="1">
          <mxGeometry x="251" y="310" width="120" height="60" as="geometry" />
        </mxCell>
        <mxCell id="yvgwfU8hFtTpQq32b1yH-214" value="" style="group" parent="1" vertex="1" connectable="0">
          <mxGeometry x="615" y="1401.67" width="210" height="50" as="geometry" />
        </mxCell>
        <mxCell id="yvgwfU8hFtTpQq32b1yH-215" value="任务id&amp;nbsp; 子任务id1&amp;nbsp; tranceIds1 center1 agentid1" style="rounded=1;whiteSpace=wrap;html=1;fillColor=#FFFFFF;" parent="yvgwfU8hFtTpQq32b1yH-214" vertex="1">
          <mxGeometry x="-50" width="260" height="50" as="geometry" />
        </mxCell>
        <mxCell id="yvgwfU8hFtTpQq32b1yH-230" value="收到主题消息，去任务队列抢占获取任务，成功获取任务，创建任务备份列表" style="text;html=1;strokeColor=none;fillColor=none;align=center;verticalAlign=middle;whiteSpace=wrap;rounded=0;" parent="1" vertex="1">
          <mxGeometry x="665.5" y="970" width="149.5" height="20" as="geometry" />
        </mxCell>
        <mxCell id="yvgwfU8hFtTpQq32b1yH-287" style="edgeStyle=orthogonalEdgeStyle;rounded=0;orthogonalLoop=1;jettySize=auto;html=1;exitX=0.5;exitY=1;exitDx=0;exitDy=0;exitPerimeter=0;entryX=0;entryY=0.75;entryDx=0;entryDy=0;strokeColor=#67AB9F;" parent="1" source="yvgwfU8hFtTpQq32b1yH-249" target="HE5zqGtq0i5ZuVJ_DL0v-73" edge="1">
          <mxGeometry relative="1" as="geometry" />
        </mxCell>
        <mxCell id="Zsitfa40AyVPrcMKO36s-8" value="返回资源" style="edgeLabel;html=1;align=center;verticalAlign=middle;resizable=0;points=[];" vertex="1" connectable="0" parent="yvgwfU8hFtTpQq32b1yH-287">
          <mxGeometry x="0.1353" y="141" relative="1" as="geometry">
            <mxPoint x="141" y="145" as="offset" />
          </mxGeometry>
        </mxCell>
        <mxCell id="yvgwfU8hFtTpQq32b1yH-249" value="资源列表" style="strokeWidth=2;html=1;shape=mxgraph.flowchart.direct_data;whiteSpace=wrap;fillColor=#FFFFFF;" parent="1" vertex="1">
          <mxGeometry x="251" y="766" width="114" height="54" as="geometry" />
        </mxCell>
        <mxCell id="yvgwfU8hFtTpQq32b1yH-251" value="collector在线列表" style="strokeWidth=2;html=1;shape=mxgraph.flowchart.direct_data;whiteSpace=wrap;fillColor=#FFFFFF;" parent="1" vertex="1">
          <mxGeometry x="939" y="769" width="125" height="54" as="geometry" />
        </mxCell>
        <mxCell id="yvgwfU8hFtTpQq32b1yH-314" value="下发数据" style="edgeStyle=orthogonalEdgeStyle;rounded=0;orthogonalLoop=1;jettySize=auto;html=1;exitX=0.25;exitY=1;exitDx=0;exitDy=0;entryX=0.25;entryY=0;entryDx=0;entryDy=0;strokeColor=#F19C99;" parent="1" source="yvgwfU8hFtTpQq32b1yH-263" target="yvgwfU8hFtTpQq32b1yH-309" edge="1">
          <mxGeometry relative="1" as="geometry" />
        </mxCell>
        <mxCell id="Zsitfa40AyVPrcMKO36s-15" style="edgeStyle=orthogonalEdgeStyle;rounded=0;orthogonalLoop=1;jettySize=auto;html=1;exitX=0.25;exitY=1;exitDx=0;exitDy=0;entryX=0.5;entryY=1;entryDx=0;entryDy=0;strokeColor=#67AB9F;" edge="1" parent="1" source="yvgwfU8hFtTpQq32b1yH-263" target="Zsitfa40AyVPrcMKO36s-14">
          <mxGeometry relative="1" as="geometry" />
        </mxCell>
        <mxCell id="Zsitfa40AyVPrcMKO36s-16" value="通过agentId获取连接" style="edgeLabel;html=1;align=center;verticalAlign=middle;resizable=0;points=[];" vertex="1" connectable="0" parent="Zsitfa40AyVPrcMKO36s-15">
          <mxGeometry x="-0.2657" y="-5" relative="1" as="geometry">
            <mxPoint x="-9" as="offset" />
          </mxGeometry>
        </mxCell>
        <mxCell id="yvgwfU8hFtTpQq32b1yH-263" value="&lt;font style=&quot;font-size: 18px&quot;&gt;&lt;b&gt;执行模块1&lt;/b&gt;&lt;/font&gt;" style="rounded=1;whiteSpace=wrap;html=1;fillColor=#E6D0DE;" parent="1" vertex="1">
          <mxGeometry x="552" y="1492.5" width="286" height="120" as="geometry" />
        </mxCell>
        <mxCell id="yvgwfU8hFtTpQq32b1yH-269" value="查看任务执行状态,&lt;br&gt;如果发现collector&lt;br&gt;离线，任务执行失败，&lt;br&gt;则将离线collector执行&lt;br&gt;子任务从备份列表放&lt;br&gt;回任务队列，同时删除&lt;br&gt;任务执行列表中的子任务" style="text;html=1;strokeColor=none;fillColor=none;align=center;verticalAlign=middle;whiteSpace=wrap;rounded=0;" parent="1" vertex="1">
          <mxGeometry x="1071" y="612" width="173" height="20" as="geometry" />
        </mxCell>
        <mxCell id="yvgwfU8hFtTpQq32b1yH-289" style="edgeStyle=orthogonalEdgeStyle;rounded=0;orthogonalLoop=1;jettySize=auto;html=1;exitX=0;exitY=0.25;exitDx=0;exitDy=0;entryX=0.91;entryY=1;entryDx=0;entryDy=0;entryPerimeter=0;strokeColor=#67AB9F;" parent="1" source="HE5zqGtq0i5ZuVJ_DL0v-73" target="yvgwfU8hFtTpQq32b1yH-249" edge="1">
          <mxGeometry relative="1" as="geometry" />
        </mxCell>
        <mxCell id="yvgwfU8hFtTpQq32b1yH-290" value="获取到任务，查看资源是否充足" style="edgeLabel;html=1;align=center;verticalAlign=middle;resizable=0;points=[];" parent="yvgwfU8hFtTpQq32b1yH-289" vertex="1" connectable="0">
          <mxGeometry x="-0.464" y="-6" relative="1" as="geometry">
            <mxPoint x="1" as="offset" />
          </mxGeometry>
        </mxCell>
        <mxCell id="yvgwfU8hFtTpQq32b1yH-296" value="&lt;br&gt;" style="edgeStyle=orthogonalEdgeStyle;rounded=0;orthogonalLoop=1;jettySize=auto;html=1;exitX=0.5;exitY=0;exitDx=0;exitDy=0;entryX=0.08;entryY=1;entryDx=0;entryDy=0;entryPerimeter=0;" parent="1" source="yvgwfU8hFtTpQq32b1yH-30" target="yvgwfU8hFtTpQq32b1yH-249" edge="1">
          <mxGeometry relative="1" as="geometry" />
        </mxCell>
        <mxCell id="yvgwfU8hFtTpQq32b1yH-297" value="注&lt;br&gt;册&lt;br&gt;资&lt;br&gt;源&lt;br&gt;collectorid&lt;br&gt;application&lt;br&gt;agentId" style="edgeLabel;html=1;align=center;verticalAlign=middle;resizable=0;points=[];" parent="yvgwfU8hFtTpQq32b1yH-296" vertex="1" connectable="0">
          <mxGeometry x="-0.0498" relative="1" as="geometry">
            <mxPoint as="offset" />
          </mxGeometry>
        </mxCell>
        <mxCell id="yvgwfU8hFtTpQq32b1yH-315" value="返回结果" style="edgeStyle=orthogonalEdgeStyle;rounded=0;orthogonalLoop=1;jettySize=auto;html=1;exitX=0.75;exitY=0;exitDx=0;exitDy=0;entryX=0.712;entryY=1.029;entryDx=0;entryDy=0;entryPerimeter=0;strokeColor=#67AB9F;" parent="1" source="yvgwfU8hFtTpQq32b1yH-309" target="yvgwfU8hFtTpQq32b1yH-263" edge="1">
          <mxGeometry relative="1" as="geometry" />
        </mxCell>
        <mxCell id="yvgwfU8hFtTpQq32b1yH-309" value="agent1" style="rounded=1;whiteSpace=wrap;html=1;fillColor=#FFFFFF;" parent="1" vertex="1">
          <mxGeometry x="555" y="1790" width="270" height="60" as="geometry" />
        </mxCell>
        <mxCell id="yvgwfU8hFtTpQq32b1yH-317" style="edgeStyle=orthogonalEdgeStyle;rounded=0;orthogonalLoop=1;jettySize=auto;html=1;exitX=0.75;exitY=0;exitDx=0;exitDy=0;entryX=0.75;entryY=1;entryDx=0;entryDy=0;strokeColor=#9AC7BF;" parent="1" source="yvgwfU8hFtTpQq32b1yH-310" target="qAdTjsP8O6FM5Z1obVZ--21" edge="1">
          <mxGeometry relative="1" as="geometry" />
        </mxCell>
        <mxCell id="yvgwfU8hFtTpQq32b1yH-318" value="返回结果" style="edgeLabel;html=1;align=center;verticalAlign=middle;resizable=0;points=[];" parent="yvgwfU8hFtTpQq32b1yH-317" vertex="1" connectable="0">
          <mxGeometry x="0.2302" y="1" relative="1" as="geometry">
            <mxPoint y="17" as="offset" />
          </mxGeometry>
        </mxCell>
        <mxCell id="yvgwfU8hFtTpQq32b1yH-310" value="agent2" style="rounded=1;whiteSpace=wrap;html=1;fillColor=#FFFFFF;" parent="1" vertex="1">
          <mxGeometry x="885.5" y="1790" width="260" height="60" as="geometry" />
        </mxCell>
        <mxCell id="Zsitfa40AyVPrcMKO36s-6" value="上报" style="edgeStyle=orthogonalEdgeStyle;rounded=0;orthogonalLoop=1;jettySize=auto;html=1;exitX=0.25;exitY=0;exitDx=0;exitDy=0;entryX=0.5;entryY=1;entryDx=0;entryDy=0;" edge="1" parent="1" source="yvgwfU8hFtTpQq32b1yH-327" target="yvgwfU8hFtTpQq32b1yH-30">
          <mxGeometry relative="1" as="geometry" />
        </mxCell>
        <mxCell id="yvgwfU8hFtTpQq32b1yH-327" value="agent3" style="rounded=1;whiteSpace=wrap;html=1;fillColor=#FFFFFF;" parent="1" vertex="1">
          <mxGeometry x="190" y="1790" width="244.67" height="60" as="geometry" />
        </mxCell>
        <mxCell id="yvgwfU8hFtTpQq32b1yH-328" value="&lt;font style=&quot;font-size: 18px&quot;&gt;&lt;b&gt;回放模块&lt;/b&gt;&lt;/font&gt;" style="text;html=1;strokeColor=none;fillColor=none;align=center;verticalAlign=middle;whiteSpace=wrap;rounded=0;" parent="1" vertex="1">
          <mxGeometry x="171" y="1760" width="100" height="20" as="geometry" />
        </mxCell>
        <mxCell id="HE5zqGtq0i5ZuVJ_DL0v-9" style="edgeStyle=orthogonalEdgeStyle;rounded=0;orthogonalLoop=1;jettySize=auto;html=1;exitX=1;exitY=0.5;exitDx=0;exitDy=0;entryX=0.312;entryY=0.991;entryDx=0;entryDy=0;entryPerimeter=0;strokeColor=#3333FF;" parent="1" source="HE5zqGtq0i5ZuVJ_DL0v-68" target="yvgwfU8hFtTpQq32b1yH-167" edge="1">
          <mxGeometry relative="1" as="geometry">
            <Array as="points">
              <mxPoint x="1134" y="1427" />
            </Array>
          </mxGeometry>
        </mxCell>
        <mxCell id="HE5zqGtq0i5ZuVJ_DL0v-10" value="拆&lt;br&gt;分&lt;br&gt;任&lt;br&gt;务&lt;br&gt;放&lt;br&gt;入&lt;br&gt;任&lt;br&gt;务&lt;br&gt;执&lt;br&gt;行&lt;br&gt;列&lt;br&gt;表" style="edgeLabel;html=1;align=center;verticalAlign=middle;resizable=0;points=[];" parent="HE5zqGtq0i5ZuVJ_DL0v-9" vertex="1" connectable="0">
          <mxGeometry x="0.4107" relative="1" as="geometry">
            <mxPoint y="-33" as="offset" />
          </mxGeometry>
        </mxCell>
        <mxCell id="HE5zqGtq0i5ZuVJ_DL0v-69" style="edgeStyle=orthogonalEdgeStyle;rounded=0;orthogonalLoop=1;jettySize=auto;html=1;exitX=0.25;exitY=1;exitDx=0;exitDy=0;entryX=0.5;entryY=0;entryDx=0;entryDy=0;strokeColor=#3333FF;fillColor=#FFFF99;" parent="1" source="yvgwfU8hFtTpQq32b1yH-337" target="yvgwfU8hFtTpQq32b1yH-215" edge="1">
          <mxGeometry relative="1" as="geometry" />
        </mxCell>
        <mxCell id="HE5zqGtq0i5ZuVJ_DL0v-70" style="edgeStyle=orthogonalEdgeStyle;rounded=0;orthogonalLoop=1;jettySize=auto;html=1;exitX=0.75;exitY=1;exitDx=0;exitDy=0;entryX=0.5;entryY=0;entryDx=0;entryDy=0;strokeColor=#3333FF;fillColor=#FFFF99;" parent="1" source="yvgwfU8hFtTpQq32b1yH-337" target="HE5zqGtq0i5ZuVJ_DL0v-68" edge="1">
          <mxGeometry relative="1" as="geometry" />
        </mxCell>
        <mxCell id="yvgwfU8hFtTpQq32b1yH-337" value="任务拆分" style="shape=process;whiteSpace=wrap;html=1;backgroundOutline=1;fillColor=#CCE5FF;" parent="1" vertex="1">
          <mxGeometry x="675" y="1328" width="323" height="32" as="geometry" />
        </mxCell>
        <mxCell id="HE5zqGtq0i5ZuVJ_DL0v-3" value="任务失败重放/重试" style="text;html=1;strokeColor=none;fillColor=none;align=center;verticalAlign=middle;whiteSpace=wrap;rounded=0;" parent="1" vertex="1">
          <mxGeometry x="711" y="768" width="55" height="20" as="geometry" />
        </mxCell>
        <mxCell id="HE5zqGtq0i5ZuVJ_DL0v-6" value="&lt;font style=&quot;font-size: 18px&quot;&gt;&lt;b&gt;Collector&lt;/b&gt;&lt;/font&gt;" style="text;html=1;strokeColor=none;fillColor=none;align=center;verticalAlign=middle;whiteSpace=wrap;rounded=0;" parent="1" vertex="1">
          <mxGeometry x="180" y="1140" width="40" height="20" as="geometry" />
        </mxCell>
        <mxCell id="HE5zqGtq0i5ZuVJ_DL0v-11" value="&lt;table border=&quot;1&quot; width=&quot;100%&quot; cellpadding=&quot;4&quot; style=&quot;width: 100% ; height: 100% ; border-collapse: collapse&quot;&gt;&lt;tbody&gt;&lt;tr&gt;&lt;th align=&quot;center&quot;&gt;任务执行列表&lt;/th&gt;&lt;/tr&gt;&lt;tr&gt;&lt;td align=&quot;center&quot;&gt;任务ID&lt;br&gt;子任务ID1&lt;br&gt;traceids1&lt;br&gt;timestamp&lt;br&gt;collector1&lt;br&gt;agentid1&lt;br&gt;center1&lt;br&gt;执行状态&lt;/td&gt;&lt;/tr&gt;&lt;tr&gt;&lt;td align=&quot;center&quot;&gt;任务ID&lt;br&gt;子任务ID2&lt;br&gt;traceids2&lt;br&gt;timestamp&lt;br&gt;collector2&lt;br&gt;agentid2&lt;br&gt;center2&lt;br&gt;执行状态&lt;br&gt;&lt;/td&gt;&lt;/tr&gt;&lt;/tbody&gt;&lt;/table&gt;" style="text;html=1;strokeColor=none;fillColor=none;overflow=fill;" parent="1" vertex="1">
          <mxGeometry x="1260" y="660" width="160" height="270" as="geometry" />
        </mxCell>
        <mxCell id="HE5zqGtq0i5ZuVJ_DL0v-34" value="定时任务" style="swimlane;fillColor=#FFFFFF;" parent="1" vertex="1">
          <mxGeometry x="1260" y="285" width="160" height="200" as="geometry" />
        </mxCell>
        <mxCell id="HE5zqGtq0i5ZuVJ_DL0v-37" value="jobId" style="text;html=1;align=center;verticalAlign=middle;resizable=0;points=[];autosize=1;" parent="HE5zqGtq0i5ZuVJ_DL0v-34" vertex="1">
          <mxGeometry x="28" y="43" width="40" height="20" as="geometry" />
        </mxCell>
        <mxCell id="HE5zqGtq0i5ZuVJ_DL0v-40" value="cronExpression" style="text;html=1;align=center;verticalAlign=middle;resizable=0;points=[];autosize=1;" parent="HE5zqGtq0i5ZuVJ_DL0v-34" vertex="1">
          <mxGeometry x="24" y="83" width="100" height="20" as="geometry" />
        </mxCell>
        <mxCell id="HE5zqGtq0i5ZuVJ_DL0v-41" value="mothodName" style="text;html=1;align=center;verticalAlign=middle;resizable=0;points=[];autosize=1;" parent="HE5zqGtq0i5ZuVJ_DL0v-34" vertex="1">
          <mxGeometry x="24" y="103" width="90" height="20" as="geometry" />
        </mxCell>
        <mxCell id="HE5zqGtq0i5ZuVJ_DL0v-42" value="triggerName" style="text;html=1;align=center;verticalAlign=middle;resizable=0;points=[];autosize=1;" parent="HE5zqGtq0i5ZuVJ_DL0v-34" vertex="1">
          <mxGeometry x="24" y="123" width="80" height="20" as="geometry" />
        </mxCell>
        <mxCell id="HE5zqGtq0i5ZuVJ_DL0v-45" value="jobName" style="text;html=1;align=center;verticalAlign=middle;resizable=0;points=[];autosize=1;" parent="HE5zqGtq0i5ZuVJ_DL0v-34" vertex="1">
          <mxGeometry x="28" y="63" width="60" height="20" as="geometry" />
        </mxCell>
        <mxCell id="HE5zqGtq0i5ZuVJ_DL0v-48" value="jobStatus" style="text;html=1;align=center;verticalAlign=middle;resizable=0;points=[];autosize=1;" parent="HE5zqGtq0i5ZuVJ_DL0v-34" vertex="1">
          <mxGeometry x="23" y="143" width="70" height="20" as="geometry" />
        </mxCell>
        <mxCell id="HE5zqGtq0i5ZuVJ_DL0v-49" value="creatBy" style="text;html=1;align=center;verticalAlign=middle;resizable=0;points=[];autosize=1;" parent="HE5zqGtq0i5ZuVJ_DL0v-34" vertex="1">
          <mxGeometry x="24" y="163" width="60" height="20" as="geometry" />
        </mxCell>
        <mxCell id="HE5zqGtq0i5ZuVJ_DL0v-52" value="" style="endArrow=none;dashed=1;html=1;fillColor=#A1FF14;entryX=-0.044;entryY=0.063;entryDx=0;entryDy=0;exitX=0.91;exitY=0;exitDx=0;exitDy=0;exitPerimeter=0;edgeStyle=orthogonalEdgeStyle;elbow=vertical;entryPerimeter=0;" parent="1" source="yvgwfU8hFtTpQq32b1yH-251" target="HE5zqGtq0i5ZuVJ_DL0v-15" edge="1">
          <mxGeometry width="50" height="50" relative="1" as="geometry">
            <mxPoint x="820" y="780" as="sourcePoint" />
            <mxPoint x="870" y="730" as="targetPoint" />
            <Array as="points">
              <mxPoint x="1053" y="535" />
            </Array>
          </mxGeometry>
        </mxCell>
        <mxCell id="HE5zqGtq0i5ZuVJ_DL0v-53" value="" style="endArrow=none;dashed=1;html=1;fillColor=#A1FF14;exitX=0.5;exitY=0;exitDx=0;exitDy=0;exitPerimeter=0;entryX=0;entryY=0.25;entryDx=0;entryDy=0;edgeStyle=orthogonalEdgeStyle;" parent="1" source="yvgwfU8hFtTpQq32b1yH-167" target="HE5zqGtq0i5ZuVJ_DL0v-11" edge="1">
          <mxGeometry width="50" height="50" relative="1" as="geometry">
            <mxPoint x="1160" y="750" as="sourcePoint" />
            <mxPoint x="1210" y="700" as="targetPoint" />
            <Array as="points">
              <mxPoint x="1158" y="730" />
              <mxPoint x="1260" y="730" />
            </Array>
          </mxGeometry>
        </mxCell>
        <mxCell id="HE5zqGtq0i5ZuVJ_DL0v-54" value="" style="endArrow=none;dashed=1;html=1;fillColor=#A1FF14;exitX=0.75;exitY=1;exitDx=0;exitDy=0;edgeStyle=elbowEdgeStyle;elbow=vertical;entryX=0;entryY=0.75;entryDx=0;entryDy=0;" parent="1" source="yvgwfU8hFtTpQq32b1yH-132" target="HE5zqGtq0i5ZuVJ_DL0v-34" edge="1">
          <mxGeometry width="50" height="50" relative="1" as="geometry">
            <mxPoint x="940" y="450" as="sourcePoint" />
            <mxPoint x="1250" y="430" as="targetPoint" />
            <Array as="points">
              <mxPoint x="1160" y="430" />
            </Array>
          </mxGeometry>
        </mxCell>
        <mxCell id="HE5zqGtq0i5ZuVJ_DL0v-68" value="任务id&amp;nbsp; 子任务id2&amp;nbsp; traceids2 center2 agentid2" style="rounded=1;whiteSpace=wrap;html=1;fillColor=#FFFFFF;" parent="1" vertex="1">
          <mxGeometry x="890" y="1401.67" width="255" height="50" as="geometry" />
        </mxCell>
        <mxCell id="HE5zqGtq0i5ZuVJ_DL0v-79" style="edgeStyle=none;rounded=0;orthogonalLoop=1;jettySize=auto;html=1;exitX=0.5;exitY=0;exitDx=0;exitDy=0;entryX=0.5;entryY=1;entryDx=0;entryDy=0;entryPerimeter=0;strokeColor=#33001A;fillColor=#FFFF99;" parent="1" source="HE5zqGtq0i5ZuVJ_DL0v-75" target="yvgwfU8hFtTpQq32b1yH-251" edge="1">
          <mxGeometry relative="1" as="geometry" />
        </mxCell>
        <mxCell id="HE5zqGtq0i5ZuVJ_DL0v-80" value="启&lt;br&gt;动&lt;br&gt;注&lt;br&gt;册&lt;br&gt;collector,&lt;br&gt;定&lt;br&gt;时&lt;br&gt;更&lt;br&gt;新&lt;br&gt;时&lt;br&gt;间&lt;br&gt;戳" style="edgeLabel;html=1;align=center;verticalAlign=middle;resizable=0;points=[];" parent="HE5zqGtq0i5ZuVJ_DL0v-79" vertex="1" connectable="0">
          <mxGeometry x="0.1034" relative="1" as="geometry">
            <mxPoint x="1" y="-21" as="offset" />
          </mxGeometry>
        </mxCell>
        <mxCell id="HE5zqGtq0i5ZuVJ_DL0v-97" style="edgeStyle=orthogonalEdgeStyle;rounded=0;orthogonalLoop=1;jettySize=auto;html=1;exitX=0.75;exitY=1;exitDx=0;exitDy=0;strokeColor=#67AB9F;fillColor=#FFFF99;" parent="1" source="HE5zqGtq0i5ZuVJ_DL0v-76" edge="1">
          <mxGeometry relative="1" as="geometry">
            <mxPoint x="1398" y="1110" as="targetPoint" />
          </mxGeometry>
        </mxCell>
        <mxCell id="HE5zqGtq0i5ZuVJ_DL0v-98" value="通过回放范围查询traceid" style="edgeLabel;html=1;align=center;verticalAlign=middle;resizable=0;points=[];" parent="HE5zqGtq0i5ZuVJ_DL0v-97" vertex="1" connectable="0">
          <mxGeometry x="-0.3328" y="-3" relative="1" as="geometry">
            <mxPoint x="-71" as="offset" />
          </mxGeometry>
        </mxCell>
        <mxCell id="HE5zqGtq0i5ZuVJ_DL0v-99" style="rounded=0;orthogonalLoop=1;jettySize=auto;html=1;exitX=0.5;exitY=1;exitDx=0;exitDy=0;entryX=0.5;entryY=0;entryDx=0;entryDy=0;strokeColor=#3333FF;fillColor=#FFFF99;" parent="1" source="HE5zqGtq0i5ZuVJ_DL0v-76" target="yvgwfU8hFtTpQq32b1yH-337" edge="1">
          <mxGeometry relative="1" as="geometry" />
        </mxCell>
        <mxCell id="HE5zqGtq0i5ZuVJ_DL0v-100" style="rounded=0;orthogonalLoop=1;jettySize=auto;html=1;exitX=0.25;exitY=1;exitDx=0;exitDy=0;entryX=0.5;entryY=0;entryDx=0;entryDy=0;strokeColor=#67AB9F;fillColor=#FFFF99;edgeStyle=orthogonalEdgeStyle;" parent="1" source="HE5zqGtq0i5ZuVJ_DL0v-73" target="yvgwfU8hFtTpQq32b1yH-31" edge="1">
          <mxGeometry relative="1" as="geometry">
            <Array as="points">
              <mxPoint x="375" y="1254" />
            </Array>
          </mxGeometry>
        </mxCell>
        <mxCell id="Zsitfa40AyVPrcMKO36s-9" value="&lt;span style=&quot;font-size: 12px ; background-color: rgb(248 , 249 , 250)&quot;&gt;如&lt;br&gt;果&lt;br&gt;资&lt;br&gt;源&lt;br&gt;不&lt;br&gt;足&lt;br&gt;进&lt;br&gt;行&lt;br&gt;扩&lt;br&gt;容&lt;/span&gt;" style="edgeLabel;html=1;align=center;verticalAlign=middle;resizable=0;points=[];" vertex="1" connectable="0" parent="HE5zqGtq0i5ZuVJ_DL0v-100">
          <mxGeometry x="0.2246" y="-2" relative="1" as="geometry">
            <mxPoint x="2.030000000000001" y="30.82" as="offset" />
          </mxGeometry>
        </mxCell>
        <mxCell id="yvgwfU8hFtTpQq32b1yH-260" value="任务执行成功，将任务从备份列表删除" style="text;html=1;strokeColor=none;fillColor=none;align=center;verticalAlign=middle;whiteSpace=wrap;rounded=0;" parent="1" vertex="1">
          <mxGeometry x="793" y="609" width="209" height="20" as="geometry" />
        </mxCell>
        <mxCell id="HE5zqGtq0i5ZuVJ_DL0v-105" style="edgeStyle=orthogonalEdgeStyle;rounded=0;orthogonalLoop=1;jettySize=auto;html=1;exitX=0.5;exitY=0;exitDx=0;exitDy=0;entryX=0.5;entryY=1;entryDx=0;entryDy=0;entryPerimeter=0;strokeColor=#67AB9F;fillColor=#FFFF99;" parent="1" source="HE5zqGtq0i5ZuVJ_DL0v-76" target="yvgwfU8hFtTpQq32b1yH-164" edge="1">
          <mxGeometry relative="1" as="geometry" />
        </mxCell>
        <mxCell id="HE5zqGtq0i5ZuVJ_DL0v-106" style="edgeStyle=orthogonalEdgeStyle;rounded=0;orthogonalLoop=1;jettySize=auto;html=1;exitX=0.5;exitY=0;exitDx=0;exitDy=0;entryX=0.5;entryY=1;entryDx=0;entryDy=0;entryPerimeter=0;strokeColor=#67AB9F;fillColor=#FFFF99;" parent="1" source="HE5zqGtq0i5ZuVJ_DL0v-76" target="yvgwfU8hFtTpQq32b1yH-153" edge="1">
          <mxGeometry relative="1" as="geometry" />
        </mxCell>
        <mxCell id="HE5zqGtq0i5ZuVJ_DL0v-122" style="edgeStyle=orthogonalEdgeStyle;rounded=0;orthogonalLoop=1;jettySize=auto;html=1;exitX=0.5;exitY=0;exitDx=0;exitDy=0;entryX=0.5;entryY=1;entryDx=0;entryDy=0;entryPerimeter=0;strokeColor=#33001A;fillColor=#FFFF99;" parent="1" source="HE5zqGtq0i5ZuVJ_DL0v-74" target="yvgwfU8hFtTpQq32b1yH-152" edge="1">
          <mxGeometry relative="1" as="geometry">
            <Array as="points">
              <mxPoint x="670" y="1050" />
              <mxPoint x="475" y="1050" />
            </Array>
          </mxGeometry>
        </mxCell>
        <mxCell id="HE5zqGtq0i5ZuVJ_DL0v-123" value="订阅" style="edgeLabel;html=1;align=center;verticalAlign=middle;resizable=0;points=[];" parent="HE5zqGtq0i5ZuVJ_DL0v-122" vertex="1" connectable="0">
          <mxGeometry x="-0.0862" relative="1" as="geometry">
            <mxPoint as="offset" />
          </mxGeometry>
        </mxCell>
        <mxCell id="Zsitfa40AyVPrcMKO36s-7" value="启/停" style="edgeStyle=orthogonalEdgeStyle;rounded=0;orthogonalLoop=1;jettySize=auto;html=1;exitX=0.5;exitY=1;exitDx=0;exitDy=0;entryX=0.75;entryY=0;entryDx=0;entryDy=0;strokeColor=#67AB9F;" edge="1" parent="1" source="yvgwfU8hFtTpQq32b1yH-31" target="yvgwfU8hFtTpQq32b1yH-327">
          <mxGeometry relative="1" as="geometry" />
        </mxCell>
      </root>
    </mxGraphModel>
  </diagram>
</mxfile>
